<?xml version="1.0" encoding="iso-8859-1"?>
<!-- Uploaded to: SVG Repo, www.svgrepo.com, Generator: SVG Repo Mixer Tools -->
<svg height="110px" width="110px" version="1.1" id="Layer_1" xmlns="http://www.w3.org/2000/svg" xmlns:xlink="http://www.w3.org/1999/xlink" 
	 viewBox="0 0 503.467 503.467" xml:space="preserve">
<g transform="translate(1 1)">
	<g>
		<path style="fill:#7EE1E6;" d="M3.267,276.333H370.2c-5.12,6.827-8.533,16.213-8.533,25.6V344.6H344.6
			c-18.773,0-34.133,15.36-34.133,34.133v34.133H37.4c-17.067,0-34.133-17.067-34.133-34.133V276.333z M498.2,37.4v102.4H3.267V37.4
			c0-17.067,17.067-34.133,34.133-34.133h426.667C481.133,3.267,498.2,20.333,498.2,37.4z M498.2,139.8v136.533h-59.733
			c-7.68-10.24-20.48-17.067-34.133-17.067c-13.653,0-26.453,6.827-34.133,17.067H3.267V139.8H498.2z M498.2,276.333v102.4
			c0-18.773-15.36-34.133-34.133-34.133H447v-42.667c0-9.387-3.413-18.773-8.533-25.6H498.2z"/>
		<path style="fill:#7EE1E6;" d="M447,301.933V344.6h-85.333v-42.667c0-9.387,3.413-18.773,8.533-25.6
			c7.68-10.24,20.48-17.067,34.133-17.067c13.653,0,26.453,6.827,34.133,17.067C443.587,283.16,447,292.547,447,301.933"/>
	</g>
	<path style="fill:#AAB1BA;" d="M498.2,378.733v85.333c0,18.773-15.36,34.133-34.133,34.133H344.6
		c-18.773,0-34.133-15.36-34.133-34.133v-51.2v-34.133c0-18.773,15.36-34.133,34.133-34.133h17.067H447h17.067
		C482.84,344.6,498.2,359.96,498.2,378.733"/>
	<path style="fill:#FFE079;" d="M395.8,54.467c9.387,0,17.067,7.68,17.067,17.067S405.187,88.6,395.8,88.6
		s-17.067-7.68-17.067-17.067S386.413,54.467,395.8,54.467z M395.8,191c9.387,0,17.067,7.68,17.067,17.067
		s-7.68,17.067-17.067,17.067s-17.067-7.68-17.067-17.067S386.413,191,395.8,191z"/>
	<path style="fill:#E4F2DE;" d="M327.533,191c9.387,0,17.067,7.68,17.067,17.067s-7.68,17.067-17.067,17.067
		s-17.067-7.68-17.067-17.067S318.147,191,327.533,191z M327.533,54.467c9.387,0,17.067,7.68,17.067,17.067
		S336.92,88.6,327.533,88.6s-17.067-7.68-17.067-17.067S318.147,54.467,327.533,54.467z"/>
	<path style="fill:#FFFF00;" d="M404.333,404.333c5.12,0,8.533,4.267,8.533,8.533s-3.413,8.533-8.533,8.533
		s-8.533-4.267-8.533-8.533S399.213,404.333,404.333,404.333"/>
</g>
<path style="fill:#51565F;" d="M465.067,503.467H345.6c-21.333,0-38.4-17.067-38.4-38.4v-85.333c0-21.333,17.067-38.4,38.4-38.4
	h12.8v-38.4c0-25.6,21.333-46.933,46.933-46.933c25.6,0,46.933,21.333,46.933,46.933v38.4h12.8c21.333,0,38.4,17.067,38.4,38.4
	v85.333C503.467,486.4,486.4,503.467,465.067,503.467z M345.6,349.867c-16.213,0-29.867,13.653-29.867,29.867v85.333
	c0,16.213,13.653,29.867,29.867,29.867h119.467c16.213,0,29.867-13.653,29.867-29.867v-85.333c0-16.213-13.653-29.867-29.867-29.867
	H345.6z M366.933,341.333h76.8v-38.4c0-21.333-17.067-38.4-38.4-38.4c-21.333,0-38.4,17.067-38.4,38.4V341.333z M405.333,452.267
	c-2.56,0-4.267-1.707-4.267-4.267v-22.187c-5.12-1.707-8.533-6.827-8.533-11.947c0-6.827,5.973-12.8,12.8-12.8s12.8,5.973,12.8,12.8
	c0,5.973-3.413,10.24-8.533,11.947V448C409.6,450.56,407.893,452.267,405.333,452.267z M405.333,409.6
	c-2.56,0-4.267,1.707-4.267,4.267c0,2.56,1.707,4.267,4.267,4.267s4.267-1.707,4.267-4.267
	C409.6,411.307,407.893,409.6,405.333,409.6z M277.333,418.133H38.4c-19.627,0-38.4-18.773-38.4-38.4v-102.4
	c0-2.56,1.707-4.267,4.267-4.267h324.267c2.56,0,4.267,1.707,4.267,4.267s-1.707,4.267-4.267,4.267h-320v98.133
	c0,14.507,15.36,29.867,29.867,29.867h238.933c2.56,0,4.267,1.707,4.267,4.267C281.6,416.427,279.893,418.133,277.333,418.133z
	 M243.2,349.867H89.6c-2.56,0-4.267-1.707-4.267-4.267c0-2.56,1.707-4.267,4.267-4.267h153.6c2.56,0,4.267,1.707,4.267,4.267
	C247.467,348.16,245.76,349.867,243.2,349.867z M499.2,324.267c-2.56,0-4.267-1.707-4.267-4.267V38.4
	c0-14.507-15.36-29.867-29.867-29.867H38.4c-14.507,0-29.867,15.36-29.867,29.867v68.267c0,2.56-1.707,4.267-4.267,4.267
	S0,109.227,0,106.667V38.4C0,18.773,18.773,0,38.4,0h426.667c19.627,0,38.4,18.773,38.4,38.4V320
	C503.467,322.56,501.76,324.267,499.2,324.267z M4.267,247.467C1.707,247.467,0,245.76,0,243.2V140.8
	c0-2.56,1.707-4.267,4.267-4.267h460.8c2.56,0,4.267,1.707,4.267,4.267c0,2.56-1.707,4.267-4.267,4.267H8.533V243.2
	C8.533,245.76,6.827,247.467,4.267,247.467z M396.8,230.4c-11.947,0-21.333-9.387-21.333-21.333
	c0-11.947,9.387-21.333,21.333-21.333s21.333,9.387,21.333,21.333C418.133,221.013,408.747,230.4,396.8,230.4z M396.8,196.267
	c-6.827,0-12.8,5.973-12.8,12.8c0,6.827,5.973,12.8,12.8,12.8s12.8-5.973,12.8-12.8C409.6,202.24,403.627,196.267,396.8,196.267z
	 M328.533,230.4c-11.947,0-21.333-9.387-21.333-21.333c0-11.947,9.387-21.333,21.333-21.333s21.333,9.387,21.333,21.333
	C349.867,221.013,340.48,230.4,328.533,230.4z M328.533,196.267c-6.827,0-12.8,5.973-12.8,12.8c0,6.827,5.973,12.8,12.8,12.8
	s12.8-5.973,12.8-12.8C341.333,202.24,335.36,196.267,328.533,196.267z M243.2,213.333H89.6c-2.56,0-4.267-1.707-4.267-4.267
	c0-2.56,1.707-4.267,4.267-4.267h153.6c2.56,0,4.267,1.707,4.267,4.267C247.467,211.627,245.76,213.333,243.2,213.333z
	 M396.8,93.867c-11.947,0-21.333-9.387-21.333-21.333S384.853,51.2,396.8,51.2s21.333,9.387,21.333,21.333
	S408.747,93.867,396.8,93.867z M396.8,59.733c-6.827,0-12.8,5.973-12.8,12.8c0,6.827,5.973,12.8,12.8,12.8s12.8-5.973,12.8-12.8
	C409.6,65.707,403.627,59.733,396.8,59.733z M328.533,93.867c-11.947,0-21.333-9.387-21.333-21.333S316.587,51.2,328.533,51.2
	s21.333,9.387,21.333,21.333S340.48,93.867,328.533,93.867z M328.533,59.733c-6.827,0-12.8,5.973-12.8,12.8
	c0,6.827,5.973,12.8,12.8,12.8s12.8-5.973,12.8-12.8C341.333,65.707,335.36,59.733,328.533,59.733z M243.2,76.8H89.6
	c-2.56,0-4.267-1.707-4.267-4.267c0-2.56,1.707-4.267,4.267-4.267h153.6c2.56,0,4.267,1.707,4.267,4.267
	C247.467,75.093,245.76,76.8,243.2,76.8z"/>
</svg>