<?xml version="1.0" encoding="utf-8"?>
<!-- Uploaded to: SVG Repo, www.svgrepo.com, Generator: SVG Repo Mixer Tools -->
<svg xmlns="http://www.w3.org/2000/svg" xmlns:xlink="http://www.w3.org/1999/xlink" version="1.1" id="swiperightphone"  viewBox="0 0 188 224" enable-background="new 0 0 188 224" xml:space="preserve" width="100" height="80">
<g>
	<circle fill="#D0E8FF" cx="64" cy="200" r="4"/>
	<path fill="#D0E8FF" d="M80,100h36V12.0156C116,9.8008,114.2188,8,112.0273,8H11.9727C9.7812,8,8,9.8008,8,12.0156v163.8887h108   V108H80V100z"/>
	<path fill="#5CB0FF" d="M8,212.002C8,214.2441,9.7441,216,11.9727,216h100.0547c2.1914,0,3.9727-1.793,3.9727-3.998V184H8V212.002z    M64,188c6.6172,0,12,5.3828,12,12s-5.3828,12-12,12s-12-5.3828-12-12S57.3828,188,64,188z"/>
	<polygon fill="#5CB0FF" points="156,113.5273 175.0566,104 156,94.4727  "/>
	<path fill="#1C71DA" d="M64,212c6.6172,0,12-5.3828,12-12s-5.3828-12-12-12s-12,5.3828-12,12S57.3828,212,64,212z M64,196   c2.2051,0,4,1.7949,4,4s-1.7949,4-4,4s-4-1.7949-4-4S61.7949,196,64,196z"/>
	<path fill="#1C71DA" d="M185.7891,100.4219l-32-16c-1.2402-0.6172-2.7129-0.5527-3.8926,0.1758   C148.7188,85.3262,148,86.6133,148,88v12h-24V12.0156C124,5.3906,118.6289,0,112.0273,0H11.9727C5.3711,0,0,5.3906,0,12.0156V176   v7.9043v28.0977C0,218.6172,5.3711,224,11.9727,224h100.0547C118.6289,224,124,218.6172,124,212.002v-28.0977V176v-68h24v12   c0,1.3867,0.7188,2.6738,1.8965,3.4023C150.5391,123.7988,151.2695,124,152,124c0.6113,0,1.2246-0.1406,1.7891-0.4219l32-16   C187.1445,106.9004,188,105.5156,188,104S187.1445,101.0996,185.7891,100.4219z M116,212.002c0,2.2051-1.7812,3.998-3.9727,3.998   H11.9727C9.7441,216,8,214.2441,8,212.002V184h108V212.002z M116,175.9043H8V12.0156C8,9.8008,9.7812,8,11.9727,8h100.0547   C114.2188,8,116,9.8008,116,12.0156V100H80v8h36V175.9043z M156,113.5273V94.4727L175.0566,104L156,113.5273z"/>
</g>
<path fill="#FF5D5D" d="M160.2524,51.8237c-1.0239,0-2.0474-0.3906-2.8286-1.1714l-14.1421-14.1421  c-1.562-1.5625-1.562-4.0947,0-5.6572c1.5625-1.5615,4.0947-1.5615,5.6572,0l14.1421,14.1421c1.562,1.5625,1.562,4.0947,0,5.6572  C162.2998,51.4331,161.2764,51.8237,160.2524,51.8237z"/>
<path fill="#FF5D5D" d="M146.1104,51.8223c-1.0239,0-2.0474-0.3906-2.8286-1.1714c-1.562-1.562-1.562-4.0947,0-5.6572  l14.1421-14.1426c1.5625-1.5615,4.0947-1.5615,5.6572,0c1.562,1.562,1.562,4.0947,0,5.6572L148.939,50.6509  C148.1577,51.4316,147.1343,51.8223,146.1104,51.8223z"/>
<path fill="#00D40B" d="M162.2524,187.8237c-7.7197,0-14-6.2803-14-14s6.2803-14,14-14s14,6.2803,14,14  S169.9722,187.8237,162.2524,187.8237z M162.2524,167.8237c-3.3086,0-6,2.6914-6,6s2.6914,6,6,6s6-2.6914,6-6  S165.561,167.8237,162.2524,167.8237z"/>
<path fill="#FFC504" d="M36.5215,94.4492c-1.0234,0-2.0474-0.3906-2.8281-1.1714l-11.314-11.3135  c-0.7505-0.7505-1.1719-1.7676-1.1719-2.8286s0.4214-2.0781,1.1719-2.8286l11.314-11.3135c1.5625-1.5615,4.0952-1.561,5.6567,0  l11.3135,11.3135c1.562,1.5625,1.562,4.0947,0,5.6572L39.3501,93.2778C38.5688,94.0586,37.5449,94.4492,36.5215,94.4492z   M30.8643,79.1357l5.6572,5.6567l5.6567-5.6567l-5.6567-5.6567L30.8643,79.1357z"/>
</svg>